<?xml version="1.0" encoding="UTF-8"?>
<!DOCTYPE svg PUBLIC "-//W3C//DTD SVG 1.1//EN" "http://www.w3.org/Graphics/SVG/1.1/DTD/svg11.dtd">
<!-- Creator: CorelDRAW 2017 -->
<svg xmlns="http://www.w3.org/2000/svg" xml:space="preserve" width="41.8332mm" height="34.24mm" version="1.1" style="shape-rendering:geometricPrecision; text-rendering:geometricPrecision; image-rendering:optimizeQuality; fill-rule:evenodd; clip-rule:evenodd"
viewBox="0 0 4183.32 3424"
 xmlns:xlink="http://www.w3.org/1999/xlink">
 <defs>
  <style type="text/css">
   <![CDATA[
    .fil0 {fill:black}
   ]]>
  </style>
 </defs>
 <g id="Capa_x0020_1">
  <metadata id="CorelCorpID_0Corel-Layer"/>
  <path class="fil0" d="M3183.39 3040.55c0,-251.38 304.29,-217.64 304.29,-16.91 0,61.57 -37.6,108.64 -86.92,132.84 -16.15,7.93 -39.29,13.9 -60.08,16.3 -72.76,8.44 -157.29,-63.41 -157.29,-132.23zm-1428.44 -16.91c0,-178.95 232.75,-213.86 296.19,-67.98 50.89,117.04 -42.45,214.12 -136.75,218.02 -79.02,3.27 -159.44,-71.66 -159.44,-150.04zm904.4 -1217.14l422.61 0 0 312.74 -422.61 0 0 -312.74zm-532.5 0l414.16 0 0 312.74 -414.16 0 0 -312.74zm-557.85 0l431.06 0 0 312.74 -363.45 0c-1.02,-45.65 -22.54,-115.48 -32.12,-153.82 -10.98,-43.92 -34.29,-115.3 -35.49,-158.92zm1800.34 312.74l-169.04 0 0 -312.74 405.71 0c-4.44,53.33 -52.11,227.54 -128.28,277.44 -24.19,15.85 -70.55,35.3 -108.39,35.3zm-709.99 -684.64l422.61 0 0 253.57 -422.61 0 0 -253.57zm-532.5 0l414.16 0 0 253.57 -414.16 0 0 -253.57zm-650.83 0l524.04 0 0 253.57 -464.87 0c-3.14,-37.74 -18.55,-82.22 -27.23,-124.92 -3.99,-19.61 -24.55,-112.1 -31.94,-128.65zm2172.25 253.57l-447.97 0 0 -253.57 524.04 0 -76.07 253.57zm-988.92 -684.64l422.61 0 0 312.74 -422.61 0 0 -312.74zm-532.5 0l414.16 0 0 312.74 -414.16 0 0 -312.74zm-752.26 0l625.47 0 0 312.74 -532.49 0c-32.27,0 -38.9,-79.49 -55.79,-147.07l-37.19 -165.67zm2383.56 312.74l-557.85 0 0 -312.74 659.28 0 -74.48 229.81c-8.41,31.78 -14.77,57.54 -26.95,82.93zm-2814.63 -1039.64c22.47,42.46 209.21,825.24 230.08,927.89l114.6 468.62c17.01,83.68 37.04,149.29 56.09,231.29 10.35,44.6 16.22,73.93 26.92,116.76 9.73,38.89 25.7,86.94 28.74,123.41 -43.7,20.97 -72.5,26.44 -111.52,57.53 -370.35,295.09 -124.89,796.16 238.3,796.16 0,240.54 154.73,405.71 397.26,405.71 199.13,0 371.91,-167.7 371.91,-397.26l650.83 0c0,85.07 18.44,154.14 60.71,218.21l42.8 58.63c90.27,107.76 289.84,157.49 446,86.72 81.16,-36.79 146.73,-107.63 185.89,-186.01 21.44,-42.91 36.9,-102.58 42.01,-152.98 2.08,-20.48 -5.53,-57.46 -8.88,-83.11 -2.93,-22.52 -13.33,-47.23 -21.43,-71.54 -43.22,-129.73 -196.31,-241.83 -324.49,-241.83 -115.42,0 -184.95,7.36 -280.61,82.84 -17.14,13.53 -33.49,43.95 -57.48,43.95l-819.88 0c-22.46,0 -38.41,-26.51 -52.65,-40.33 -104.97,-101.86 -296.64,-113.71 -434.89,-41.5 -133.48,69.72 -19.96,81.83 -188.64,81.83 -90.11,0 -185.96,-86.91 -185.96,-177.5 0,-232.57 162.04,-228.21 363.45,-228.21l1673.73 0.16c156.36,0.1 286.28,-103.41 348.24,-201.16 60.13,-94.87 291.99,-886.43 341.46,-1053.18 32.92,-110.95 141.79,-320.66 -56.26,-342.99 -84.31,-9.51 -2010.02,-0.33 -2264.9,-0.33l-380.44 0.08c-72.81,0.75 -60.99,4.4 -74.34,-52.44l-123.16 -502.31c-14.92,-37.57 -27.3,-52.1 -47.37,-79.42 -84.8,-115.41 -461.56,-84.35 -627.03,-84.35 -124.62,0 -157.63,144.12 -82.71,209.48 51.87,45.25 443.88,27.18 523.62,27.18z"/>
  <path class="fil0" d="M284.79 1485.32c0,40.88 24.25,67.61 61.33,67.61l636.21 0c82.28,0 82.28,-135.23 0,-135.23l-666.87 0c-14.3,23.53 -30.67,29.21 -30.67,67.62z"/>
  <path class="fil0" d="M31.5 1130.32c0,40.88 26.73,67.62 67.62,67.62l566.31 0c71.1,0 71.1,-135.24 0,-135.24l-566.31 0c-40.89,0 -67.62,26.73 -67.62,67.62z"/>
  <path class="fil0" d="M275.78 775.32c0,44.14 29.03,67.62 50.72,67.62l540.95 0c63.11,0 78.98,-135.24 -16.91,-135.24l-507.14 0c-40.88,0 -67.62,26.73 -67.62,67.62z"/>
 </g>
</svg>
